<svg width="20" height="20" viewBox="0 0 20 20" fill="none" xmlns="http://www.w3.org/2000/svg">
<path fill-rule="evenodd" clip-rule="evenodd" d="M11.6667 2.5C12.0871 2.49987 12.4921 2.65867 12.8005 2.94458C13.1088 3.23049 13.2976 3.62237 13.3292 4.04167L13.3333 4.16667V5.04583L16.3675 5.85917C16.7738 5.96791 17.1239 6.22622 17.3477 6.58231C17.5715 6.9384 17.6524 7.36593 17.5742 7.77917L17.5458 7.9L15.3892 15.95C15.2803 16.3561 15.0219 16.7061 14.6658 16.9297C14.3097 17.1533 13.8823 17.2341 13.4692 17.1558L13.3483 17.1283L12.8592 16.9975C12.5908 17.2725 12.2267 17.4558 11.8208 17.4933L11.6667 17.5H4.16667C3.74619 17.5001 3.34119 17.3413 3.03288 17.0554C2.72456 16.7695 2.5357 16.3776 2.50417 15.9583L2.5 15.8333V4.16667C2.49987 3.74619 2.65867 3.34119 2.94458 3.03288C3.23049 2.72456 3.62237 2.5357 4.04167 2.50417L4.16667 2.5H11.6667ZM11.6667 4.16667H4.16667V15.8333H11.6667V4.16667ZM13.3333 6.77167V15.3992L13.7792 15.5183L15.9367 7.46833L13.3333 6.77167Z" fill="#A3A3A3"/>
</svg>
