<svg width="20" height="20" viewBox="0 0 20 20" fill="none" xmlns="http://www.w3.org/2000/svg">
<path fill-rule="evenodd" clip-rule="evenodd" d="M14.1663 1.66675C14.804 1.66671 15.4176 1.91035 15.8816 2.34782C16.3455 2.78528 16.6248 3.3835 16.6622 4.02008L16.6663 4.16675V15.0151C16.6663 16.0001 15.5888 16.5842 14.7705 16.0859L14.6813 16.0259L14.1663 15.6517V17.5151C14.1663 18.5001 13.0888 19.0842 12.2705 18.5859L12.1813 18.5259L8.74967 16.0301L5.31801 18.5259C4.52134 19.1059 3.41551 18.5776 3.33717 17.6226L3.33301 17.5151V6.66675C3.33301 6.00371 3.5964 5.36782 4.06524 4.89898C4.53408 4.43014 5.16997 4.16675 5.83301 4.16675C5.83297 3.52907 6.07661 2.91549 6.51408 2.45153C6.95154 1.98758 7.54976 1.70833 8.18634 1.67091L8.33301 1.66675H14.1663ZM11.6663 5.83342H5.83301C5.6289 5.83344 5.43189 5.90838 5.27936 6.04401C5.12684 6.17964 5.02939 6.36654 5.00551 6.56925L4.99967 6.66675V16.6967L8.01467 14.5051C8.21117 14.3621 8.4451 14.2794 8.68783 14.2673C8.93056 14.2552 9.17156 14.314 9.38134 14.4367L9.48467 14.5042L12.4997 16.6967V6.66675C12.4996 6.46264 12.4247 6.26563 12.2891 6.1131C12.1534 5.96058 11.9665 5.86313 11.7638 5.83925L11.6663 5.83342ZM14.1663 3.33341H8.33301C8.11199 3.33341 7.90003 3.42121 7.74375 3.57749C7.58747 3.73377 7.49967 3.94573 7.49967 4.16675H11.6663C12.3294 4.16675 12.9653 4.43014 13.4341 4.89898C13.9029 5.36782 14.1663 6.00371 14.1663 6.66675V13.5909L14.9997 14.1967V4.16675C14.9997 3.94573 14.9119 3.73377 14.7556 3.57749C14.5993 3.42121 14.3874 3.33341 14.1663 3.33341Z" fill="white"/>
</svg>
