<svg width="20" height="20" viewBox="0 0 20 20" fill="none" xmlns="http://www.w3.org/2000/svg">
<path fill-rule="evenodd" clip-rule="evenodd" d="M14.1673 1.6665C14.805 1.66647 15.4186 1.91011 15.8825 2.34757C16.3465 2.78504 16.6257 3.38326 16.6632 4.01984L16.6673 4.1665V15.0148C16.6673 15.9998 15.5898 16.584 14.7715 16.0857L14.6823 16.0257L14.1673 15.6515V17.5148C14.1673 18.4998 13.0898 19.084 12.2715 18.5857L12.1823 18.5257L8.75065 16.0298L5.31898 18.5257C4.52232 19.1057 3.41648 18.5773 3.33815 17.6223L3.33398 17.5148V6.6665C3.33398 6.00346 3.59738 5.36758 4.06622 4.89874C4.53506 4.4299 5.17094 4.1665 5.83398 4.1665C5.83395 3.52883 6.07759 2.91524 6.51505 2.45129C6.95252 1.98733 7.55074 1.70808 8.18732 1.67067L8.33398 1.6665H14.1673ZM11.6673 5.83317H5.83398C5.62987 5.8332 5.43287 5.90813 5.28034 6.04377C5.12781 6.1794 5.03037 6.36629 5.00648 6.569L5.00065 6.6665V16.6965L8.01565 14.5048C8.21215 14.3618 8.44607 14.2792 8.6888 14.2671C8.93153 14.2549 9.17253 14.3138 9.38232 14.4365L9.48565 14.504L12.5007 16.6965V6.6665C12.5006 6.46239 12.4257 6.26539 12.2901 6.11286C12.1544 5.96033 11.9675 5.86288 11.7648 5.839L11.6673 5.83317ZM14.1673 3.33317H8.33398C8.11297 3.33317 7.90101 3.42097 7.74473 3.57725C7.58845 3.73353 7.50065 3.94549 7.50065 4.1665H11.6673C12.3304 4.1665 12.9662 4.4299 13.4351 4.89874C13.9039 5.36758 14.1673 6.00346 14.1673 6.6665V13.5907L15.0007 14.1965V4.1665C15.0007 3.94549 14.9129 3.73353 14.7566 3.57725C14.6003 3.42097 14.3883 3.33317 14.1673 3.33317Z" fill="#333333"/>
</svg>
