<svg width="20" height="20" viewBox="0 0 20 20" fill="none" xmlns="http://www.w3.org/2000/svg">
<path fill-rule="evenodd" clip-rule="evenodd" d="M14.1663 1.66663C14.804 1.66659 15.4176 1.91023 15.8816 2.3477C16.3455 2.78516 16.6248 3.38338 16.6622 4.01996L16.6663 4.16663V15.015C16.6663 16 15.5888 16.5841 14.7705 16.0858L14.6813 16.0258L14.1663 15.6516V17.515C14.1663 18.5 13.0888 19.0841 12.2705 18.5858L12.1813 18.5258L8.74967 16.03L5.31801 18.5258C4.52134 19.1058 3.41551 18.5775 3.33717 17.6225L3.33301 17.515V6.66663C3.33301 6.00358 3.5964 5.3677 4.06524 4.89886C4.53408 4.43002 5.16997 4.16663 5.83301 4.16663C5.83297 3.52895 6.07661 2.91536 6.51408 2.45141C6.95154 1.98745 7.54976 1.7082 8.18634 1.67079L8.33301 1.66663H14.1663ZM11.6663 5.83329H5.83301C5.6289 5.83332 5.43189 5.90826 5.27936 6.04389C5.12684 6.17952 5.02939 6.36642 5.00551 6.56913L4.99967 6.66663V16.6966L8.01467 14.505C8.21117 14.3619 8.4451 14.2793 8.68783 14.2672C8.93056 14.255 9.17156 14.3139 9.38134 14.4366L9.48467 14.5041L12.4997 16.6966V6.66663C12.4996 6.46252 12.4247 6.26551 12.2891 6.11298C12.1534 5.96045 11.9665 5.86301 11.7638 5.83913L11.6663 5.83329ZM14.1663 3.33329H8.33301C8.11199 3.33329 7.90003 3.42109 7.74375 3.57737C7.58747 3.73365 7.49967 3.94561 7.49967 4.16663H11.6663C12.3294 4.16663 12.9653 4.43002 13.4341 4.89886C13.9029 5.3677 14.1663 6.00358 14.1663 6.66663V13.5908L14.9997 14.1966V4.16663C14.9997 3.94561 14.9119 3.73365 14.7556 3.57737C14.5993 3.42109 14.3874 3.33329 14.1663 3.33329Z" fill="#BABABA"/>
</svg>
