<svg width="20" height="20" viewBox="0 0 20 20" fill="none" xmlns="http://www.w3.org/2000/svg">
<path fill-rule="evenodd" clip-rule="evenodd" d="M8.33203 1.66663C7.66899 1.66663 7.03311 1.93002 6.56426 2.39886C6.09542 2.8677 5.83203 3.50358 5.83203 4.16663C5.16899 4.16663 4.53311 4.43002 4.06426 4.89886C3.59542 5.3677 3.33203 6.00358 3.33203 6.66663V17.515C3.33203 18.5366 4.49036 19.1266 5.31703 18.5258L8.7487 16.03L12.1804 18.5258C13.0062 19.1266 14.1654 18.5366 14.1654 17.515V15.6516L14.6804 16.0266C15.5062 16.6266 16.6654 16.0366 16.6654 15.015V4.16663C16.6654 3.50358 16.402 2.8677 15.9331 2.39886C15.4643 1.93002 14.8284 1.66663 14.1654 1.66663H8.33203ZM14.1654 13.5908L14.9987 14.1966V4.16663C14.9987 3.94561 14.9109 3.73365 14.7546 3.57737C14.5983 3.42109 14.3864 3.33329 14.1654 3.33329H8.33203C8.11102 3.33329 7.89906 3.42109 7.74278 3.57737C7.5865 3.73365 7.4987 3.94561 7.4987 4.16663H11.6654C12.3284 4.16663 12.9643 4.43002 13.4331 4.89886C13.902 5.3677 14.1654 6.00358 14.1654 6.66663V13.5908Z" fill="#163300"/>
</svg>
