<svg width="150" height="150" viewBox="0 0 150 150" fill="none" xmlns="http://www.w3.org/2000/svg">
<g opacity="0.5">
<path fill-rule="evenodd" clip-rule="evenodd" d="M106.25 23.2632V57.6194L124.15 62.0944C126.178 62.6017 127.978 63.7722 129.264 65.4198C130.551 67.0675 131.25 69.0978 131.25 71.1882V118.751C132.908 118.751 134.497 119.409 135.669 120.581C136.842 121.753 137.5 123.343 137.5 125.001C137.5 126.658 136.842 128.248 135.669 129.42C134.497 130.592 132.908 131.251 131.25 131.251H18.75C17.0924 131.251 15.5027 130.592 14.3306 129.42C13.1585 128.248 12.5 126.658 12.5 125.001C12.5 123.343 13.1585 121.753 14.3306 120.581C15.5027 119.409 17.0924 118.751 18.75 118.751V70.6882C18.7489 68.9452 19.2337 67.2363 20.1501 65.7536C21.0664 64.2709 22.378 63.073 23.9375 62.2944L43.75 52.3882V39.6694C43.7492 37.7607 44.331 35.8972 45.4177 34.328C46.5044 32.7589 48.0442 31.5588 49.8312 30.8882L93.5812 14.4819C95 13.9495 96.5266 13.769 98.0304 13.9557C99.5342 14.1425 100.97 14.691 102.216 15.5542C103.461 16.4175 104.479 17.5698 105.181 18.9124C105.884 20.2549 106.251 21.7478 106.25 23.2632ZM106.25 70.5069V118.751H118.75V73.6257L106.25 70.5069ZM43.75 66.3632L31.25 72.6132V118.751H43.75V66.3632Z" fill="white"/>
</g>
</svg>
