<svg width="20" height="20" viewBox="0 0 20 20" fill="none" xmlns="http://www.w3.org/2000/svg">
<path d="M10.8327 2.5C11.2532 2.49987 11.6582 2.65867 11.9665 2.94458C12.2748 3.23049 12.4636 3.62237 12.4952 4.04167L12.4993 4.16667V17.5H7.49935V4.16667C7.49922 3.74619 7.65802 3.34119 7.94393 3.03288C8.22984 2.72456 8.62172 2.5357 9.04102 2.50417L9.16602 2.5H10.8327ZM16.666 6.66667C17.108 6.66667 17.532 6.84226 17.8445 7.15482C18.1571 7.46738 18.3327 7.89131 18.3327 8.33333V15.8333C18.3327 16.2754 18.1571 16.6993 17.8445 17.0118C17.532 17.3244 17.108 17.5 16.666 17.5H14.166V6.66667H16.666ZM5.83268 9.16667V17.5H3.33268C2.89065 17.5 2.46673 17.3244 2.15417 17.0118C1.84161 16.6993 1.66602 16.2754 1.66602 15.8333V10.8333C1.66602 10.3913 1.84161 9.96738 2.15417 9.65482C2.46673 9.34226 2.89065 9.16667 3.33268 9.16667H5.83268Z" fill="#767676"/>
</svg>
