<svg width="15" height="15" viewBox="0 0 15 15" fill="none" xmlns="http://www.w3.org/2000/svg">
<path d="M8.125 1.875C8.44036 1.8749 8.7441 1.994 8.97534 2.20844C9.20658 2.42287 9.34822 2.71678 9.37187 3.03125L9.375 3.125V13.125H5.625V3.125C5.6249 2.80964 5.744 2.5059 5.95844 2.27466C6.17287 2.04342 6.46678 1.90178 6.78125 1.87813L6.875 1.875H8.125ZM12.5 5C12.8315 5 13.1495 5.1317 13.3839 5.36612C13.6183 5.60054 13.75 5.91848 13.75 6.25V11.875C13.75 12.2065 13.6183 12.5245 13.3839 12.7589C13.1495 12.9933 12.8315 13.125 12.5 13.125H10.625V5H12.5ZM4.375 6.875V13.125H2.5C2.16848 13.125 1.85054 12.9933 1.61612 12.7589C1.3817 12.5245 1.25 12.2065 1.25 11.875V8.125C1.25 7.79348 1.3817 7.47554 1.61612 7.24112C1.85054 7.0067 2.16848 6.875 2.5 6.875H4.375Z" fill="#334155"/>
</svg>
