<svg width="100" height="100" viewBox="0 0 100 100" fill="none" xmlns="http://www.w3.org/2000/svg">
<rect width="100" height="100" rx="50" fill="#ECFAE2"/>
<path fill-rule="evenodd" clip-rule="evenodd" d="M71.4786 34.4998C72.1113 35.1327 72.4667 35.991 72.4667 36.8859C72.4667 37.7808 72.1113 38.6391 71.4786 39.272L46.1818 64.5688C45.8475 64.9032 45.4506 65.1684 45.0138 65.3494C44.577 65.5303 44.1088 65.6235 43.6359 65.6235C43.1631 65.6235 42.6949 65.5303 42.2581 65.3494C41.8213 65.1684 41.4244 64.9032 41.0901 64.5688L28.5216 52.0025C28.1992 51.6912 27.9421 51.3188 27.7652 50.907C27.5883 50.4953 27.4952 50.0524 27.4913 49.6043C27.4874 49.1561 27.5728 48.7117 27.7425 48.2969C27.9122 47.8822 28.1628 47.5053 28.4797 47.1884C28.7966 46.8716 29.1734 46.621 29.5882 46.4513C30.003 46.2816 30.4474 46.1962 30.8955 46.2001C31.3437 46.2039 31.7865 46.2971 32.1983 46.4739C32.6101 46.6508 32.9825 46.9079 33.2938 47.2303L43.6348 57.5713L66.7041 34.4998C67.0175 34.1862 67.3896 33.9374 67.7993 33.7676C68.2089 33.5979 68.6479 33.5105 69.0913 33.5105C69.5347 33.5105 69.9738 33.5979 70.3834 33.7676C70.793 33.9374 71.1651 34.1862 71.4786 34.4998Z" fill="#163300"/>
</svg>
