<svg width="54" height="54" viewBox="0 0 54 54" fill="none" xmlns="http://www.w3.org/2000/svg">
<path fill-rule="evenodd" clip-rule="evenodd" d="M48.4786 11.5C49.1113 12.1329 49.4667 12.9912 49.4667 13.8861C49.4667 14.7811 49.1113 15.6394 48.4786 16.2723L23.1818 41.569C22.8475 41.9034 22.4506 42.1686 22.0138 42.3496C21.577 42.5306 21.1088 42.6237 20.6359 42.6237C20.1631 42.6237 19.6949 42.5306 19.2581 42.3496C18.8213 42.1686 18.4244 41.9034 18.0901 41.569L5.52156 29.0028C5.19921 28.6914 4.9421 28.319 4.76522 27.9073C4.58834 27.4955 4.49523 27.0526 4.49134 26.6045C4.48744 26.1564 4.57284 25.7119 4.74254 25.2972C4.91223 24.8824 5.16284 24.5056 5.47973 24.1887C5.79661 23.8718 6.17344 23.6212 6.58821 23.4515C7.00299 23.2818 7.44741 23.1964 7.89554 23.2003C8.34367 23.2042 8.78654 23.2973 9.1983 23.4742C9.61006 23.6511 9.98248 23.9082 10.2938 24.2305L20.6348 34.5715L43.7041 11.5C44.0175 11.1864 44.3896 10.9376 44.7993 10.7679C45.2089 10.5981 45.6479 10.5107 46.0913 10.5107C46.5347 10.5107 46.9738 10.5981 47.3834 10.7679C47.793 10.9376 48.1651 11.1864 48.4786 11.5Z" fill="#163300"/>
</svg>
