<svg width="20" height="20" viewBox="0 0 20 20" fill="none" xmlns="http://www.w3.org/2000/svg">
<path d="M13.75 9.16667C14.5463 9.16661 15.3288 9.37401 16.0206 9.76845C16.7123 10.1629 17.2894 10.7307 17.6949 11.4161C18.1004 12.1014 18.3203 12.8805 18.333 13.6768C18.3458 14.473 18.1508 15.2587 17.7675 15.9567L18.0891 17.0492C18.1316 17.1935 18.1345 17.3467 18.0973 17.4926C18.0602 17.6384 17.9844 17.7716 17.8779 17.878C17.7715 17.9844 17.6384 18.0602 17.4925 18.0974C17.3467 18.1345 17.1935 18.1317 17.0491 18.0892L15.9575 17.7675C15.3449 18.1039 14.6636 18.2957 13.9655 18.3283C13.2675 18.361 12.5712 18.2336 11.9299 17.9558C11.2887 17.6781 10.7194 17.2574 10.2656 16.726C9.8119 16.1945 9.4857 15.5663 9.31197 14.8894C9.13824 14.2126 9.12159 13.5049 9.26329 12.8206C9.405 12.1363 9.7013 11.4935 10.1295 10.9413C10.5578 10.389 11.1066 9.94205 11.7341 9.63448C12.3616 9.3269 13.0511 9.16689 13.75 9.16667ZM9.16662 2.5C10.8249 2.50023 12.4364 3.04978 13.7493 4.06279C15.0621 5.0758 16.0025 6.49519 16.4233 8.09917C15.162 7.50135 13.737 7.34291 12.3752 7.64912C11.0134 7.95532 9.79337 8.70854 8.90943 9.78873C8.02549 10.8689 7.52857 12.2139 7.49785 13.6093C7.46714 15.0048 7.9044 16.3703 8.73995 17.4883C7.53401 17.4213 6.36237 17.0624 5.32579 16.4425L3.11746 17.0925C2.97261 17.1352 2.81892 17.1381 2.67257 17.1009C2.52622 17.0636 2.39262 16.9876 2.28583 16.8808C2.17905 16.774 2.10302 16.6404 2.06577 16.4941C2.02851 16.3477 2.0314 16.194 2.07412 16.0492L2.72412 13.8408C2.04532 12.7023 1.68036 11.4043 1.66643 10.0788C1.6525 8.7534 1.99008 7.44795 2.64481 6.29543C3.29953 5.14291 4.248 4.18449 5.39363 3.51779C6.53926 2.85108 7.84112 2.49989 9.16662 2.5Z" fill="#767676"/>
</svg>
