<svg width="45" height="45" viewBox="0 0 45 45" fill="none" xmlns="http://www.w3.org/2000/svg">
<path d="M30.9369 20.625C32.7286 20.6249 34.4894 21.0915 36.0458 21.979C37.6023 22.8665 38.9006 24.1442 39.813 25.6862C40.7253 27.2282 41.2202 28.9812 41.2489 30.7727C41.2775 32.5641 40.8389 34.3321 39.9763 35.9025L40.7 38.3606C40.7957 38.6855 40.8021 39.0301 40.7185 39.3583C40.6349 39.6864 40.4644 39.986 40.2249 40.2255C39.9854 40.4649 39.6859 40.6354 39.3577 40.7191C39.0295 40.8027 38.6849 40.7963 38.36 40.7006L35.9038 39.9769C34.5256 40.7337 32.9925 41.1653 31.4219 41.2387C29.8513 41.3122 28.2847 41.0255 26.8418 40.4006C25.399 39.7758 24.1181 38.8292 23.0972 37.6334C22.0763 36.4376 21.3423 35.0242 20.9514 33.5012C20.5606 31.9782 20.5231 30.3861 20.8419 28.8464C21.1608 27.3067 21.8274 25.8603 22.791 24.6178C23.7545 23.3753 24.9895 22.3696 26.4013 21.6776C27.8132 20.9855 29.3646 20.6255 30.9369 20.625ZM20.6244 5.625C24.3555 5.62551 27.9813 6.86201 30.9353 9.14127C33.8893 11.4205 36.005 14.6142 36.9519 18.2231C34.1141 16.878 30.9077 16.5215 27.8437 17.2105C24.7798 17.8995 22.0346 19.5942 20.0457 22.0246C18.0569 24.4551 16.9388 27.4813 16.8697 30.621C16.8006 33.7607 17.7844 36.8332 19.6644 39.3488C16.951 39.198 14.3149 38.3904 11.9825 36.9956L7.01379 38.4581C6.68788 38.5543 6.34208 38.5608 6.01279 38.4769C5.6835 38.3931 5.3829 38.222 5.14263 37.9818C4.90237 37.7415 4.73132 37.4409 4.64749 37.1116C4.56366 36.7823 4.57015 36.4365 4.66629 36.1106L6.12879 31.1419C4.60147 28.5802 3.78033 25.6596 3.74898 22.6774C3.71763 19.6952 4.4772 16.7579 5.95033 14.1647C7.42345 11.5716 9.55752 9.41511 12.1352 7.91502C14.7128 6.41492 17.642 5.62476 20.6244 5.625Z" fill="#A3A3A3"/>
</svg>
