<svg width="20" height="20" viewBox="0 0 20 20" fill="none" xmlns="http://www.w3.org/2000/svg">
<path fill-rule="evenodd" clip-rule="evenodd" d="M7.49935 1.66602C7.05732 1.66602 6.6334 1.84161 6.32084 2.15417C6.00828 2.46673 5.83268 2.89065 5.83268 3.33268V4.99935H7.49935V3.33268H16.666V12.4993H14.9993V14.166H16.666C17.108 14.166 17.532 13.9904 17.8445 13.6779C18.1571 13.3653 18.3327 12.9414 18.3327 12.4993V3.33268C18.3327 2.89065 18.1571 2.46673 17.8445 2.15417C17.532 1.84161 17.108 1.66602 16.666 1.66602H7.49935ZM3.33268 5.83268C2.89065 5.83268 2.46673 6.00828 2.15417 6.32084C1.84161 6.6334 1.66602 7.05732 1.66602 7.49935V16.666C1.66602 17.108 1.84161 17.532 2.15417 17.8445C2.46673 18.1571 2.89065 18.3327 3.33268 18.3327H12.4993C12.9414 18.3327 13.3653 18.1571 13.6779 17.8445C13.9904 17.532 14.166 17.108 14.166 16.666V7.49935C14.166 7.05732 13.9904 6.6334 13.6779 6.32084C13.3653 6.00828 12.9414 5.83268 12.4993 5.83268H3.33268Z" fill="#163300"/>
</svg>
