<svg width="20" height="20" viewBox="0 0 20 20" fill="none" xmlns="http://www.w3.org/2000/svg">
<path fill-rule="evenodd" clip-rule="evenodd" d="M17.5 3.33333C17.5 3.11232 17.4122 2.90036 17.2559 2.74408C17.0996 2.5878 16.8877 2.5 16.6667 2.5H12.5C12.279 2.5 12.067 2.5878 11.9107 2.74408C11.7545 2.90036 11.6667 3.11232 11.6667 3.33333C11.6667 3.55435 11.7545 3.76631 11.9107 3.92259C12.067 4.07887 12.279 4.16667 12.5 4.16667H14.655L12.8967 5.925C13.3528 6.24878 13.7514 6.6468 14.0758 7.1025L15.8333 5.345V7.5C15.8333 7.72101 15.9211 7.93297 16.0774 8.08926C16.2337 8.24554 16.4457 8.33333 16.6667 8.33333C16.8877 8.33333 17.0996 8.24554 17.2559 8.08926C17.4122 7.93297 17.5 7.72101 17.5 7.5V3.33333ZM12.8975 5.925C12.0519 5.32175 11.0387 4.99829 10 5H4.16667C3.72464 5 3.30072 5.17559 2.98816 5.48816C2.67559 5.80072 2.5 6.22464 2.5 6.66667V15.8333C2.5 16.2754 2.67559 16.6993 2.98816 17.0118C3.30072 17.3244 3.72464 17.5 4.16667 17.5H13.3333C13.7754 17.5 14.1993 17.3244 14.5118 17.0118C14.8244 16.6993 15 16.2754 15 15.8333V10C15 8.92 14.6583 7.92 14.075 7.1025L8.9225 12.2558C8.76533 12.4076 8.55483 12.4916 8.33633 12.4897C8.11784 12.4878 7.90882 12.4002 7.75432 12.2457C7.59981 12.0912 7.51217 11.8822 7.51027 11.6637C7.50837 11.4452 7.59237 11.2347 7.74417 11.0775L12.8975 5.925Z" fill="#163300"/>
</svg>
