<svg width="20" height="20" viewBox="0 0 20 20" fill="none" xmlns="http://www.w3.org/2000/svg">
<path fill-rule="evenodd" clip-rule="evenodd" d="M4.16797 3.33337C3.50493 3.33337 2.86904 3.59677 2.4002 4.06561C1.93136 4.53445 1.66797 5.17033 1.66797 5.83337V15C1.66797 15.6631 1.93136 16.299 2.4002 16.7678C2.86904 17.2366 3.50493 17.5 4.16797 17.5H15.8346C16.4977 17.5 17.1336 17.2366 17.6024 16.7678C18.0712 16.299 18.3346 15.6631 18.3346 15V5.83337C18.3346 5.17033 18.0712 4.53445 17.6024 4.06561C17.1336 3.59677 16.4977 3.33337 15.8346 3.33337C11.943 3.34171 8.0563 3.33337 4.16797 3.33337ZM10.3988 5.00004L11.1896 6.97587C11.2514 7.13051 11.3581 7.26309 11.4959 7.35652C11.6338 7.44995 11.7964 7.49994 11.963 7.50004H16.668V5.83337C16.668 5.61236 16.5802 5.4004 16.4239 5.24412C16.2676 5.08784 16.0556 5.00004 15.8346 5.00004H10.3988Z" fill="#163300"/>
</svg>
