<svg width="20" height="20" viewBox="0 0 20 20" fill="none" xmlns="http://www.w3.org/2000/svg">
<path fill-rule="evenodd" clip-rule="evenodd" d="M4.16699 3.33337C3.50395 3.33337 2.86807 3.59677 2.39923 4.06561C1.93038 4.53445 1.66699 5.17033 1.66699 5.83337V15C1.66699 15.6631 1.93038 16.299 2.39923 16.7678C2.86807 17.2366 3.50395 17.5 4.16699 17.5H15.8337C16.4967 17.5 17.1326 17.2366 17.6014 16.7678C18.0703 16.299 18.3337 15.6631 18.3337 15V5.83337C18.3337 5.17033 18.0703 4.53445 17.6014 4.06561C17.1326 3.59677 16.4967 3.33337 15.8337 3.33337H4.16699ZM3.33366 5.83337C3.33366 5.61236 3.42146 5.4004 3.57774 5.24412C3.73402 5.08784 3.94598 5.00004 4.16699 5.00004H8.03866C8.20518 5.00015 8.36785 5.05014 8.50569 5.14356C8.64353 5.23699 8.75021 5.36957 8.81199 5.52421L9.64116 7.59504C9.82668 8.05892 10.1469 8.45658 10.5606 8.73672C10.9743 9.01685 11.4624 9.16662 11.962 9.16671H16.667V15C16.667 15.2211 16.5792 15.433 16.4229 15.5893C16.2666 15.7456 16.0547 15.8334 15.8337 15.8334H4.16699C3.94598 15.8334 3.73402 15.7456 3.57774 15.5893C3.42146 15.433 3.33366 15.2211 3.33366 15V5.83337ZM16.667 7.50004H11.962C11.7955 7.49994 11.6328 7.44995 11.495 7.35652C11.3571 7.26309 11.2504 7.13051 11.1887 6.97587L10.3978 5.00004H15.8337C16.0547 5.00004 16.2666 5.08784 16.4229 5.24412C16.5792 5.4004 16.667 5.61236 16.667 5.83337V7.50004Z" fill="#A3A3A3"/>
</svg>
