<svg width="10" height="11" viewBox="0 0 10 11" fill="none" xmlns="http://www.w3.org/2000/svg">
<path d="M5 0C7.7615 0 10 2.2385 10 5C10 7.7615 7.7615 10 5 10C2.2385 10 0 7.7615 0 5C0 2.2385 2.2385 0 5 0ZM4.995 4H4.5C4.37256 4.00014 4.24998 4.04894 4.15732 4.13642C4.06465 4.22391 4.00888 4.34348 4.00141 4.4707C3.99395 4.59792 4.03534 4.72319 4.11713 4.82092C4.19893 4.91864 4.31495 4.98145 4.4415 4.9965L4.5 5V7.495C4.5 7.755 4.697 7.97 4.95 7.997L5.005 8H5.25C5.35516 8 5.45764 7.96685 5.54287 7.90526C5.6281 7.84367 5.69174 7.75677 5.72475 7.65693C5.75775 7.55709 5.75843 7.44938 5.7267 7.34912C5.69497 7.24887 5.63244 7.16117 5.548 7.0985L5.5 7.067V4.505C5.5 4.245 5.303 4.03 5.05 4.003L4.995 4ZM5 2.5C4.86739 2.5 4.74021 2.55268 4.64645 2.64645C4.55268 2.74021 4.5 2.86739 4.5 3C4.5 3.13261 4.55268 3.25979 4.64645 3.35355C4.74021 3.44732 4.86739 3.5 5 3.5C5.13261 3.5 5.25979 3.44732 5.35355 3.35355C5.44732 3.25979 5.5 3.13261 5.5 3C5.5 2.86739 5.44732 2.74021 5.35355 2.64645C5.25979 2.55268 5.13261 2.5 5 2.5Z" fill="#333333"/>
</svg>
