<svg width="10" height="10" viewBox="0 0 10 10" fill="none" xmlns="http://www.w3.org/2000/svg">
<path d="M6.62004 3.96856C6.72941 3.8592 6.87545 3.79429 7.02992 3.78636C7.18438 3.77843 7.33629 3.82806 7.45629 3.92565L7.50379 3.96856L8.38796 4.85231C8.85263 5.31422 9.1174 5.94009 9.12529 6.59524C9.13317 7.25039 8.88355 7.88245 8.43014 8.35542C7.97672 8.82838 7.35575 9.10445 6.70086 9.12421C6.04596 9.14396 5.40948 8.90583 4.92837 8.46106L4.85212 8.38815L3.96837 7.50398C3.85552 7.3906 3.79043 7.23827 3.78652 7.07835C3.7826 6.91843 3.84016 6.76309 3.94733 6.64433C4.0545 6.52557 4.20314 6.45242 4.36262 6.43996C4.5221 6.42749 4.6803 6.47665 4.80462 6.57731L4.85212 6.62023L5.73629 7.50398C5.96595 7.73194 6.27508 7.86196 6.59864 7.86668C6.9222 7.87141 7.23498 7.75047 7.4712 7.5293C7.70743 7.30814 7.84868 7.00399 7.86524 6.68082C7.88181 6.35764 7.77241 6.04064 7.56004 5.79648L7.50379 5.73648L6.62004 4.85231C6.50287 4.73511 6.43705 4.57617 6.43705 4.41044C6.43705 4.24471 6.50287 4.08577 6.62004 3.96856ZM3.67379 3.67398C3.78316 3.56462 3.9292 3.4997 4.08366 3.49178C4.23813 3.48385 4.39004 3.53348 4.51004 3.63106L4.55754 3.67398L6.32546 5.4419C6.43911 5.55514 6.50486 5.70775 6.50909 5.86814C6.51333 6.02852 6.45573 6.18439 6.34821 6.30347C6.24069 6.42256 6.09149 6.49573 5.93151 6.50785C5.77153 6.51997 5.61302 6.4701 5.48879 6.36856L5.44129 6.32565L3.67379 4.55773C3.55662 4.44052 3.4908 4.28158 3.4908 4.11585C3.4908 3.95013 3.55662 3.79118 3.67379 3.67398ZM1.61129 1.61148C2.06722 1.15563 2.68164 0.893538 3.32622 0.87995C3.97081 0.866363 4.59572 1.10233 5.07046 1.53856L5.14712 1.61148L6.03046 2.49565C6.14331 2.60902 6.2084 2.76135 6.21231 2.92128C6.21623 3.0812 6.15867 3.23654 6.0515 3.3553C5.94432 3.47406 5.79569 3.5472 5.63621 3.55967C5.47673 3.57214 5.31853 3.52298 5.19421 3.42231L5.14671 3.3794L4.26337 2.49565C4.034 2.26632 3.72446 2.13514 3.40016 2.1298C3.07585 2.12446 2.76217 2.24539 2.52537 2.46705C2.28857 2.6887 2.1472 2.99372 2.13113 3.31767C2.11505 3.64162 2.22552 3.95914 2.43921 4.20315L2.49546 4.26315L3.37879 5.14731C3.49164 5.26069 3.55673 5.41302 3.56065 5.57294C3.56456 5.73287 3.50701 5.8882 3.39983 6.00696C3.29266 6.12572 3.14403 6.19887 2.98454 6.21134C2.82506 6.2238 2.66687 6.17464 2.54254 6.07398L2.49546 6.03106L1.61129 5.14731C1.3791 4.91516 1.19491 4.63954 1.06925 4.3362C0.943585 4.03286 0.878906 3.70774 0.878906 3.3794C0.878906 3.05106 0.943585 2.72593 1.06925 2.42259C1.19491 2.11925 1.3791 1.84363 1.61129 1.61148Z" fill="white"/>
</svg>
