<svg width="17" height="19" viewBox="0 0 17 19" fill="none" xmlns="http://www.w3.org/2000/svg">
<path d="M7.40833 0.280368C7.66179 0.111221 7.95676 0.0147934 8.26119 0.00157036C8.56561 -0.0116527 8.86784 0.0588344 9.135 0.205368L9.2575 0.280368L15.9242 4.72453C16.133 4.86371 16.3078 5.04827 16.4353 5.26442C16.5629 5.48058 16.64 5.72275 16.6608 5.97287L16.6667 6.1112V13.9987C16.6668 14.4192 16.508 14.8242 16.2221 15.1325C15.9362 15.4408 15.5443 15.6297 15.125 15.6612L15 15.6654H1.66667C1.24619 15.6655 0.841195 15.5067 0.532877 15.2208C0.224559 14.9349 0.0357028 14.543 0.00416676 14.1237L0 13.9987V6.1112C4.3261e-06 5.86029 0.0566621 5.61261 0.165747 5.38665C0.274832 5.16069 0.433529 4.96227 0.63 4.8062L0.7425 4.72453L7.40833 0.280368ZM8.33333 1.66704L2.33583 5.66537L8.33333 9.6637L14.3308 5.66537L8.33333 1.66704Z" fill="#767676"/>
</svg>
