<svg width="54" height="54" viewBox="0 0 54 54" fill="none" xmlns="http://www.w3.org/2000/svg">
<path d="M39.375 6.75C41.9777 6.75 44.4805 7.7523 46.3638 9.54884C48.247 11.3454 49.3661 13.7982 49.4888 16.398L49.5 16.875V33.75C49.5004 34.8853 49.0716 35.9788 48.2996 36.8112C47.5277 37.6437 46.4696 38.1536 45.3375 38.2388L45 38.25H38.25V45C38.2494 45.5735 38.0298 46.1251 37.6361 46.5421C37.2424 46.9591 36.7044 47.21 36.1319 47.2436C35.5594 47.2772 34.9956 47.091 34.5559 46.7229C34.1161 46.3548 33.8335 45.8327 33.7658 45.2633L33.75 45V38.25H9C7.8647 38.2504 6.77122 37.8216 5.93877 37.0496C5.10631 36.2777 4.5964 35.2196 4.51125 34.0875L4.5 33.75V16.875C4.5 14.2723 5.5023 11.7695 7.29884 9.88623C9.09538 8.00296 11.5482 6.88387 14.148 6.76125L14.625 6.75H39.375ZM14.625 11.25C13.1332 11.25 11.7024 11.8426 10.6475 12.8975C9.59263 13.9524 9 15.3832 9 16.875V33.75H20.25V16.875C20.25 15.3832 19.6574 13.9524 18.6025 12.8975C17.5476 11.8426 16.1168 11.25 14.625 11.25ZM15.75 18C16.3235 18.0006 16.8751 18.2202 17.2921 18.6139C17.7091 19.0076 17.96 19.5456 17.9936 20.1181C18.0272 20.6906 17.841 21.2544 17.4729 21.6941C17.1048 22.1339 16.5827 22.4165 16.0133 22.4843L15.75 22.5H13.5C12.9265 22.4994 12.3749 22.2798 11.9579 21.8861C11.5409 21.4924 11.29 20.9544 11.2564 20.3819C11.2228 19.8094 11.409 19.2456 11.7771 18.8059C12.1452 18.3661 12.6673 18.0835 13.2367 18.0157L13.5 18H15.75Z" fill="#163300"/>
</svg>
