<svg width="150" height="150" viewBox="0 0 150 150" fill="none" xmlns="http://www.w3.org/2000/svg">
<g opacity="0.5">
<path d="M25.625 37.5H50C51.6576 37.5 53.2473 38.1585 54.4194 39.3306C55.5915 40.5027 56.25 42.0924 56.25 43.75C56.25 45.4076 55.5915 46.9973 54.4194 48.1694C53.2473 49.3415 51.6576 50 50 50H25V68.75H50C51.6576 68.75 53.2473 69.4085 54.4194 70.5806C55.5915 71.7527 56.25 73.3424 56.25 75C56.25 76.6576 55.5915 78.2473 54.4194 79.4194C53.2473 80.5915 51.6576 81.25 50 81.25H25C25 89.538 28.2924 97.4866 34.1529 103.347C40.0134 109.208 47.962 112.5 56.25 112.5H68.75V125H56.25C54.5924 125 53.0027 125.658 51.8306 126.831C50.6585 128.003 50 129.592 50 131.25C50 132.908 50.6585 134.497 51.8306 135.669C53.0027 136.842 54.5924 137.5 56.25 137.5H93.75C95.4076 137.5 96.9973 136.842 98.1694 135.669C99.3415 134.497 100 132.908 100 131.25C100 129.592 99.3415 128.003 98.1694 126.831C96.9973 125.658 95.4076 125 93.75 125H81.25V112.5H93.75C102.038 112.5 109.987 109.208 115.847 103.347C121.708 97.4866 125 89.538 125 81.25H100C98.3424 81.25 96.7527 80.5915 95.5806 79.4194C94.4085 78.2473 93.75 76.6576 93.75 75C93.75 73.3424 94.4085 71.7527 95.5806 70.5806C96.7527 69.4085 98.3424 68.75 100 68.75H125V50H100C98.3424 50 96.7527 49.3415 95.5806 48.1694C94.4085 46.9973 93.75 45.4076 93.75 43.75C93.75 42.0924 94.4085 40.5027 95.5806 39.3306C96.7527 38.1585 98.3424 37.5 100 37.5H124.375C122.934 30.4415 119.099 24.0975 113.518 19.5418C107.937 14.9861 100.954 12.4985 93.75 12.5H56.25C49.0459 12.4985 42.0626 14.9861 36.4819 19.5418C30.9011 24.0975 27.0658 30.4415 25.625 37.5Z" fill="white"/>
</g>
</svg>
