<svg width="20" height="20" viewBox="0 0 20 20" fill="none" xmlns="http://www.w3.org/2000/svg">
<path fill-rule="evenodd" clip-rule="evenodd" d="M13.5351 2.92918C13.9939 2.47053 14.6129 2.20816 15.2616 2.19748C15.9102 2.18681 16.5375 2.42867 17.0111 2.87198C17.4847 3.31528 17.7675 3.92532 17.7996 4.57322C17.8318 5.22112 17.6108 5.85616 17.1835 6.34418L17.071 6.46418L16.4818 7.05334L17.071 7.64251C17.3661 7.93748 17.5399 8.33245 17.558 8.74937C17.5761 9.16628 17.437 9.5748 17.1685 9.89418L17.071 10L13.5351 13.5358C13.3852 13.6853 13.1839 13.7721 12.9723 13.7785C12.7607 13.785 12.5545 13.7107 12.3957 13.5706C12.2369 13.4306 12.1374 13.2354 12.1173 13.0246C12.0972 12.8138 12.1581 12.6033 12.2876 12.4358L12.3568 12.3567L15.8926 8.82168L15.3035 8.23251L7.07179 16.4642C6.9696 16.566 6.84483 16.6422 6.70763 16.6867L6.60263 16.7142L3.69429 17.2967C3.56648 17.3224 3.43443 17.3181 3.30857 17.2841C3.1827 17.2501 3.06646 17.1873 2.96902 17.1006C2.87157 17.014 2.79558 16.9059 2.74704 16.7849C2.69849 16.6639 2.67873 16.5333 2.68929 16.4033L2.70346 16.3058L3.28513 13.3967C3.31352 13.2552 3.37491 13.1224 3.46429 13.0092L3.53596 12.9283L13.5351 2.92918ZM14.7143 4.10751L14.1243 4.69668L15.3035 5.87501L15.8926 5.28584C16.0489 5.12948 16.1366 4.91744 16.1365 4.69638C16.1365 4.47532 16.0486 4.26335 15.8922 4.10709C15.7358 3.95084 15.5238 3.8631 15.3027 3.86318C15.0817 3.86325 14.8705 3.95114 14.7143 4.10751Z" fill="black"/>
</svg>
