<svg width="20" height="20" viewBox="0 0 20 20" fill="none" xmlns="http://www.w3.org/2000/svg">
<path d="M9.99935 1.66663C14.6018 1.66663 18.3327 5.39746 18.3327 9.99996C18.3327 14.6025 14.6018 18.3333 9.99935 18.3333C5.39685 18.3333 1.66602 14.6025 1.66602 9.99996C1.66602 5.39746 5.39685 1.66663 9.99935 1.66663ZM7.46935 7.20829L7.42518 7.62496L7.40018 7.90246L7.36518 8.40246L7.34518 8.78579L7.33018 9.20663L7.32185 9.66413V10.1458L7.33018 10.6033L7.34518 11.025L7.36518 11.4083L7.40018 11.9083L7.45935 12.5166L7.47018 12.6016C7.48861 12.7547 7.54241 12.9014 7.62732 13.03C7.71224 13.1587 7.82594 13.2658 7.95942 13.343C8.0929 13.4201 8.2425 13.4651 8.39638 13.4744C8.55027 13.4837 8.70421 13.4571 8.84602 13.3966L9.22602 13.2283L9.76852 12.9708L10.0935 12.8075L10.4518 12.6208L10.8402 12.41L11.2552 12.175L11.666 11.9333L11.8585 11.8166L12.2168 11.5916L12.5402 11.3833L12.8252 11.1925L13.3694 10.8091L13.5169 10.7C13.6403 10.6074 13.7405 10.4873 13.8095 10.3493C13.8784 10.2113 13.9143 10.0591 13.9142 9.90475C13.9141 9.75045 13.8781 9.59828 13.809 9.46033C13.7399 9.32237 13.6396 9.20241 13.516 9.10996L13.1777 8.86246L12.9485 8.70163L12.6818 8.51996L12.211 8.21329L11.8543 7.98996L11.4627 7.75496L11.0468 7.51496L10.6485 7.29413L10.276 7.09579L9.93435 6.92079L9.48435 6.70163L9.11852 6.53329L8.92685 6.44829L8.84768 6.41496C8.70587 6.35402 8.55181 6.32696 8.39772 6.33594C8.24363 6.34492 8.09375 6.38968 7.95997 6.46668C7.8262 6.54368 7.71221 6.65079 7.62704 6.77952C7.54188 6.90825 7.48789 7.05506 7.46935 7.20829Z" fill="white"/>
</svg>
