<svg width="15" height="16" viewBox="0 0 15 16" fill="none" xmlns="http://www.w3.org/2000/svg">
<path d="M8.16163 0.243079C8.31159 0.0936221 8.51282 0.00685078 8.72445 0.000388621C8.93607 -0.00607354 9.14222 0.068258 9.30103 0.208286C9.45983 0.348314 9.55938 0.543538 9.57946 0.754307C9.59954 0.965077 9.53864 1.17559 9.40913 1.34308L9.33996 1.42141L8.99496 1.76641H10.8341C11.4718 1.76638 12.0854 2.01002 12.5493 2.44748C13.0133 2.88495 13.2926 3.48317 13.33 4.11974L13.3341 4.26641V10.2414C13.8901 10.4382 14.3586 10.8251 14.6569 11.3339C14.9553 11.8426 15.0642 12.4404 14.9645 13.0217C14.8648 13.603 14.5629 14.1303 14.112 14.5105C13.6612 14.8908 13.0906 15.0995 12.5008 15.0997C11.9241 15.0999 11.3651 14.9007 10.9185 14.5359C10.4719 14.1711 10.1651 13.6631 10.0502 13.098C9.93522 12.5329 10.0192 11.9455 10.2878 11.4352C10.5564 10.9249 10.9932 10.5232 11.5241 10.2981L11.6675 10.2414V4.26641C11.6674 4.0623 11.5925 3.8653 11.4569 3.71277C11.3212 3.56024 11.1343 3.46279 10.9316 3.43891L10.8341 3.43308H8.99496L9.33996 3.77808C9.49101 3.9277 9.57916 4.12939 9.58636 4.34187C9.59357 4.55435 9.5193 4.76155 9.37874 4.92106C9.23818 5.08057 9.04198 5.18033 8.83028 5.19992C8.61858 5.2195 8.4074 5.15743 8.23996 5.02641L8.16163 4.95641L6.39413 3.18975C6.2503 3.04631 6.16382 2.85528 6.15093 2.65257C6.13803 2.44985 6.19963 2.24941 6.32413 2.08891L6.39413 2.01058L8.1608 0.243079H8.16163ZM2.5008 0.0997454C3.07747 0.0995625 3.63647 0.298748 4.08309 0.663551C4.52971 1.02836 4.83648 1.53634 4.95143 2.10144C5.06637 2.66655 4.98241 3.25401 4.71379 3.76429C4.44516 4.27458 4.00839 4.67631 3.47746 4.90141L3.33413 4.95808V10.2431C3.88891 10.4407 4.35616 10.8278 4.65355 11.3361C4.95093 11.8444 5.05938 12.4414 4.95979 13.0218C4.86019 13.6023 4.55894 14.129 4.10911 14.5091C3.65927 14.8892 3.08972 15.0984 2.5008 15.0997C1.92412 15.0999 1.36512 14.9007 0.9185 14.5359C0.47188 14.1711 0.16511 13.6631 0.0501677 13.098C-0.0647748 12.5329 0.019179 11.9455 0.287804 11.4352C0.55643 10.9249 0.993207 10.5232 1.52413 10.2981L1.66746 10.2414V4.95725C1.11209 4.76004 0.644213 4.37303 0.346359 3.8645C0.0485045 3.35597 -0.060185 2.75858 0.0394645 2.17772C0.139114 1.59686 0.4407 1.06986 0.891018 0.68968C1.34134 0.309499 1.91145 0.100569 2.5008 0.0997454Z" fill="black"/>
</svg>
