<svg width="20" height="20" viewBox="0 0 20 20" fill="none" xmlns="http://www.w3.org/2000/svg">
<path d="M20 10C20 15.5228 15.5228 20 10 20C4.47715 20 0 15.5228 0 10C0 4.47715 4.47715 0 10 0C15.5228 0 20 4.47715 20 10ZM1.5 10C1.5 14.6944 5.30558 18.5 10 18.5C14.6944 18.5 18.5 14.6944 18.5 10C18.5 5.30558 14.6944 1.5 10 1.5C5.30558 1.5 1.5 5.30558 1.5 10Z" fill="#F7F7F7"/>
<path d="M10 0.750488C10 0.336275 10.3363 -0.0024387 10.7493 0.0285948C12.3467 0.148612 13.8922 0.650782 15.2551 1.49261C15.6075 1.71029 15.6805 2.18198 15.437 2.51708C15.1935 2.85219 14.726 2.9233 14.3707 2.7103C13.2681 2.04924 12.0297 1.64683 10.7491 1.53355C10.3365 1.49705 10 1.1647 10 0.750488Z" fill="#163300"/>
</svg>
