<svg width="20" height="20" viewBox="0 0 20 20" fill="none" xmlns="http://www.w3.org/2000/svg">
<path fill-rule="evenodd" clip-rule="evenodd" d="M8.74972 1.66663C7.62022 1.66672 6.50711 1.93693 5.50327 2.4547C4.49943 2.97248 3.63397 3.72281 2.97909 4.64309C2.32421 5.56337 1.8989 6.62691 1.73865 7.745C1.5784 8.86308 1.68785 10.0033 2.05787 11.0704C2.4279 12.1376 3.04776 13.1008 3.86575 13.8797C4.68375 14.6586 5.67614 15.2306 6.76015 15.548C7.84416 15.8653 8.98834 15.9188 10.0972 15.7041C11.2061 15.4893 12.2476 15.0124 13.1347 14.3133L16.1781 17.3566C16.3352 17.5084 16.5457 17.5924 16.7642 17.5905C16.9827 17.5886 17.1917 17.501 17.3462 17.3465C17.5007 17.192 17.5884 16.983 17.5903 16.7645C17.5922 16.546 17.5082 16.3355 17.3564 16.1783L14.3131 13.135C15.1364 12.0905 15.649 10.8353 15.7923 9.51306C15.9356 8.19083 15.7037 6.85498 15.1232 5.65837C14.5428 4.46176 13.6371 3.45276 12.51 2.74682C11.3828 2.04088 10.0797 1.66654 8.74972 1.66663ZM3.33306 8.74996C3.33306 7.31337 3.90374 5.93562 4.91956 4.9198C5.93538 3.90398 7.31313 3.33329 8.74972 3.33329C10.1863 3.33329 11.5641 3.90398 12.5799 4.9198C13.5957 5.93562 14.1664 7.31337 14.1664 8.74996C14.1664 10.1865 13.5957 11.5643 12.5799 12.5801C11.5641 13.5959 10.1863 14.1666 8.74972 14.1666C7.31313 14.1666 5.93538 13.5959 4.91956 12.5801C3.90374 11.5643 3.33306 10.1865 3.33306 8.74996Z" fill="#BABABA"/>
</svg>
