<svg width="20" height="20" viewBox="0 0 20 20" fill="none" xmlns="http://www.w3.org/2000/svg">
<path d="M8.42866 3.74265L8.25949 6.36265L8.24283 6.71015L8.16783 6.71848C4.46949 7.15181 1.66699 10.3051 1.66699 14.1668C1.66699 14.5479 1.69533 14.9249 1.75199 15.2976C1.98449 16.8351 2.15949 16.9843 3.22866 15.7126C3.49376 15.4035 3.78361 15.1164 4.09533 14.8543C5.21449 13.9294 6.60622 13.3971 8.05699 13.3393L8.24533 13.3351L8.29616 14.3593L8.43449 16.3135C8.50116 16.9835 9.20616 17.441 9.85449 17.0751C10.1478 16.9101 10.4337 16.7335 10.7212 16.5585C12.2103 15.6268 13.6045 14.556 14.9628 13.4435C15.7628 12.7768 16.4628 12.1451 17.0595 11.5701C17.3345 11.301 17.6095 11.0318 17.8753 10.7535C18.2603 10.3501 18.2987 9.68265 17.8953 9.26015C16.967 8.28931 15.6553 7.07348 14.0228 5.78348C12.6995 4.74848 11.3312 3.78181 9.88116 2.93265C9.18366 2.53515 8.49199 3.08015 8.42866 3.74265Z" fill="#333333"/>
</svg>
