<svg width="20" height="20" viewBox="0 0 20 20" fill="none" xmlns="http://www.w3.org/2000/svg">
<path d="M9.30833 2.5C9.15268 2.94362 9.12484 3.42206 9.22798 3.88074C9.33112 4.33942 9.56109 4.75988 9.89167 5.09417C8.65333 6.375 7.47 8.01917 6.795 10.0425C6.58692 10.6601 6.62824 11.3346 6.91016 11.9222C7.19208 12.5097 7.69231 12.964 8.30427 13.1882C8.91623 13.4123 9.59153 13.3887 10.1863 13.1222C10.7811 12.8557 11.2483 12.3676 11.4883 11.7617L11.5383 11.6242C12.0475 10.095 13.1425 8.7825 14.39 7.72667C14.9988 7.21369 15.6476 6.75001 16.33 6.34L16.6558 6.14833L16.9475 5.985L17.1992 5.85167L17.5 5.7V15.8333C17.5001 16.2538 17.3413 16.6588 17.0554 16.9671C16.7695 17.2754 16.3776 17.4643 15.9583 17.4958L15.8333 17.5H4.16667C3.74619 17.5001 3.34119 17.3413 3.03288 17.0554C2.72456 16.7695 2.5357 16.3776 2.50417 15.9583L2.5 15.8333V4.16667C2.49987 3.74619 2.65867 3.34119 2.94458 3.03288C3.23049 2.72456 3.62237 2.5357 4.04167 2.50417L4.16667 2.5H9.30833ZM16.2608 2.5C16.7792 2.5 17.0808 2.89 17.1567 3.21333C17.2325 3.5375 17.1358 4.0225 16.6692 4.2525L16.3242 4.42833L16.1875 4.50167L15.885 4.66917L15.5475 4.86583L15.1817 5.09083C14.6133 5.44917 13.965 5.90417 13.3133 6.455C11.935 7.62083 10.5983 9.1725 9.9575 11.0967C9.88766 11.3064 9.73736 11.4798 9.53967 11.5787C9.34197 11.6777 9.11308 11.694 8.90333 11.6242C8.69359 11.5543 8.52018 11.404 8.42126 11.2063C8.32233 11.0086 8.30599 10.7797 8.37583 10.57C9.14917 8.25 10.7283 6.45917 12.2375 5.1825C12.5967 4.87833 12.9558 4.60083 13.3025 4.34917L13.5608 4.16667H11.6667C11.4543 4.16643 11.25 4.0851 11.0955 3.93929C10.9411 3.79349 10.8481 3.59421 10.8357 3.38217C10.8232 3.17014 10.8922 2.96135 11.0286 2.79847C11.1649 2.6356 11.3583 2.53092 11.5692 2.50583L11.6667 2.5H16.2608Z" fill="#767676"/>
</svg>
