<svg width="150" height="150" viewBox="0 0 150 150" fill="none" xmlns="http://www.w3.org/2000/svg">
<g opacity="0.5">
<path d="M106.25 25C109.565 25 112.745 26.317 115.089 28.6612C117.433 31.0054 118.75 34.1848 118.75 37.5V50.2188C124.232 50.9998 129.214 53.8308 132.69 58.1406C136.167 62.4504 137.88 67.9183 137.483 73.4414C137.087 78.9644 134.61 84.1316 130.554 87.9006C126.497 91.6696 121.162 93.76 115.625 93.75H110.7C105.766 101.641 98.8537 108.105 90.65 112.5H106.25C107.908 112.5 109.497 113.158 110.669 114.331C111.842 115.503 112.5 117.092 112.5 118.75C112.5 120.408 111.842 121.997 110.669 123.169C109.497 124.342 107.908 125 106.25 125H25C23.3424 125 21.7527 124.342 20.5806 123.169C19.4085 121.997 18.75 120.408 18.75 118.75C18.75 117.092 19.4085 115.503 20.5806 114.331C21.7527 113.158 23.3424 112.5 25 112.5H40.6C32.1089 107.966 25.0093 101.209 20.06 92.9531C15.1107 84.6969 12.4976 75.251 12.5 65.625V37.5C12.5 34.1848 13.817 31.0054 16.1612 28.6612C18.5054 26.317 21.6848 25 25 25H106.25ZM118.75 63.0312V65.625C118.75 71.05 117.938 76.2875 116.425 81.2188C118.486 81.0439 120.431 80.1924 121.958 78.7969C123.484 77.4015 124.507 75.5404 124.865 73.5034C125.224 71.4665 124.899 69.3681 123.941 67.535C122.983 65.702 121.446 64.2372 119.569 63.3688L118.75 63.0312Z" fill="white"/>
</g>
</svg>
