<svg width="30" height="30" viewBox="0 0 30 30" fill="none" xmlns="http://www.w3.org/2000/svg">
<path fill-rule="evenodd" clip-rule="evenodd" d="M24.7144 10.1105C24.7229 10.3292 24.7257 10.5477 24.7257 10.7663C24.7257 17.394 20.0634 25.0454 11.5377 25.0454C8.91872 25.0454 6.48347 24.2107 4.43164 22.7897C4.79434 22.8295 5.16269 22.8594 5.53669 22.8594C7.70816 22.8594 9.70818 22.0543 11.2946 20.7029C9.26635 20.6731 7.55367 19.2124 6.96299 17.2251C7.24656 17.2847 7.53858 17.3146 7.83721 17.3146C8.25832 17.3146 8.66718 17.2551 9.05908 17.1358C6.93659 16.6787 5.33792 14.6517 5.33792 12.2172C5.33792 12.1874 5.33792 12.1774 5.33792 12.1576C5.96345 12.5252 6.67941 12.7536 7.43966 12.7834C6.19425 11.8792 5.37558 10.3391 5.37558 8.60015C5.37558 7.68598 5.60356 6.82145 6.00488 6.0762C8.29034 9.11682 11.7073 11.1141 15.5594 11.3228C15.4802 10.9551 15.4397 10.5677 15.4397 10.1802C15.4397 7.40784 17.5151 5.16211 20.0756 5.16211C21.4087 5.16211 22.6126 5.76833 23.4577 6.74213C24.5156 6.52352 25.5067 6.10621 26.4035 5.52988C26.0559 6.70241 25.322 7.68593 24.363 8.30201C25.3013 8.18277 26.1963 7.91468 27.0263 7.51721C26.4035 8.52082 25.6197 9.40504 24.7144 10.1105Z" fill="#163300"/>
</svg>
