<svg width="20" height="20" viewBox="0 0 20 20" fill="none" xmlns="http://www.w3.org/2000/svg">
<path d="M9.16663 1.66675C8.06156 1.66675 7.00175 2.10573 6.22035 2.88714C5.43895 3.66854 4.99996 4.72835 4.99996 5.83342C4.99996 6.93848 5.43895 7.99829 6.22035 8.77969C7.00175 9.56109 8.06156 10.0001 9.16663 10.0001C10.2717 10.0001 11.3315 9.56109 12.1129 8.77969C12.8943 7.99829 13.3333 6.93848 13.3333 5.83342C13.3333 4.72835 12.8943 3.66854 12.1129 2.88714C11.3315 2.10573 10.2717 1.66675 9.16663 1.66675ZM9.16663 10.8334C7.17079 10.8334 5.35413 11.4117 4.01829 12.2267C3.35163 12.6334 2.78163 13.1134 2.36996 13.6351C1.96496 14.1467 1.66663 14.7609 1.66663 15.4167C1.66663 16.1209 2.00913 16.6759 2.50246 17.0717C2.96913 17.4467 3.58496 17.6951 4.23913 17.8684C5.55413 18.2159 7.30913 18.3334 9.16663 18.3334L9.73746 18.3293C9.87702 18.3273 10.0139 18.2904 10.1354 18.2218C10.257 18.1532 10.3594 18.0552 10.4332 17.9368C10.5071 17.8183 10.55 17.6832 10.558 17.5439C10.566 17.4045 10.5389 17.2654 10.4791 17.1392C10.1631 16.4704 9.99948 15.7398 9.99996 15.0001C9.99996 13.9567 10.3191 12.9901 10.8641 12.1892C10.9451 12.0702 10.9939 11.9323 11.0058 11.7888C11.0176 11.6453 10.992 11.5012 10.9316 11.3706C10.8712 11.2399 10.778 11.1271 10.661 11.0432C10.544 10.9593 10.4073 10.9071 10.2641 10.8917C9.90524 10.8529 9.5394 10.8334 9.16663 10.8334ZM15.2633 11.7092C15.0924 11.6523 14.9076 11.6523 14.7366 11.7092L12.2366 12.5426C12.0706 12.5979 11.9262 12.704 11.8239 12.846C11.7216 12.9879 11.6666 13.1584 11.6666 13.3334V14.7259C11.6665 15.6173 11.9951 16.4774 12.5895 17.1416C13.1839 17.8058 14.0024 18.2275 14.8883 18.3259C14.9633 18.3342 15.0377 18.3342 15.1116 18.3259C15.9975 18.2275 16.816 17.8058 17.4104 17.1416C18.0048 16.4774 18.3334 15.6173 18.3333 14.7259V13.3334C18.3333 13.1584 18.2783 12.9879 18.176 12.846C18.0737 12.704 17.9293 12.5979 17.7633 12.5426L15.2633 11.7092Z" fill="black"/>
</svg>
