<svg width="20" height="20" viewBox="0 0 20 20" fill="none" xmlns="http://www.w3.org/2000/svg">
<path fill-rule="evenodd" clip-rule="evenodd" d="M10.0003 1.66675C5.39783 1.66675 1.66699 5.39758 1.66699 10.0001C1.66699 14.6026 5.39783 18.3334 10.0003 18.3334C14.6028 18.3334 18.3337 14.6026 18.3337 10.0001C18.3337 5.39758 14.6028 1.66675 10.0003 1.66675ZM7.08366 7.91675C7.08366 7.53373 7.1591 7.15445 7.30568 6.80059C7.45225 6.44672 7.66709 6.12519 7.93793 5.85435C8.20877 5.58352 8.5303 5.36868 8.88417 5.2221C9.23803 5.07552 9.6173 5.00008 10.0003 5.00008C10.3833 5.00008 10.7626 5.07552 11.1165 5.2221C11.4704 5.36868 11.7919 5.58352 12.0627 5.85435C12.3336 6.12519 12.5484 6.44672 12.695 6.80059C12.8416 7.15445 12.917 7.53373 12.917 7.91675C12.917 8.6903 12.6097 9.43216 12.0627 9.97914C11.5157 10.5261 10.7739 10.8334 10.0003 10.8334C9.22678 10.8334 8.48491 10.5261 7.93793 9.97914C7.39095 9.43216 7.08366 8.6903 7.08366 7.91675ZM15.2153 14.1534C14.5913 14.9379 13.7982 15.5713 12.8953 16.0065C11.9923 16.4417 11.0027 16.6674 10.0003 16.6667C8.99795 16.6674 8.00837 16.4417 7.10538 16.0065C6.2024 15.5713 5.40933 14.9379 4.78533 14.1534C6.13616 13.1842 7.97949 12.5001 10.0003 12.5001C12.0212 12.5001 13.8645 13.1842 15.2153 14.1534Z" fill="#767676"/>
</svg>
