<svg width="20" height="20" viewBox="0 0 20 20" fill="none" xmlns="http://www.w3.org/2000/svg">
<path fill-rule="evenodd" clip-rule="evenodd" d="M10.0003 1.66602C5.39783 1.66602 1.66699 5.39685 1.66699 9.99935C1.66699 14.6018 5.39783 18.3327 10.0003 18.3327C14.6028 18.3327 18.3337 14.6018 18.3337 9.99935C18.3337 5.39685 14.6028 1.66602 10.0003 1.66602ZM7.08366 7.91602C7.08366 7.53299 7.1591 7.15372 7.30568 6.79986C7.45225 6.44599 7.66709 6.12446 7.93793 5.85362C8.20877 5.58278 8.5303 5.36794 8.88417 5.22137C9.23803 5.07479 9.6173 4.99935 10.0003 4.99935C10.3833 4.99935 10.7626 5.07479 11.1165 5.22137C11.4704 5.36794 11.7919 5.58278 12.0627 5.85362C12.3336 6.12446 12.5484 6.44599 12.695 6.79986C12.8416 7.15372 12.917 7.53299 12.917 7.91602C12.917 8.68956 12.6097 9.43143 12.0627 9.97841C11.5157 10.5254 10.7739 10.8327 10.0003 10.8327C9.22678 10.8327 8.48491 10.5254 7.93793 9.97841C7.39095 9.43143 7.08366 8.68956 7.08366 7.91602ZM15.2153 14.1527C14.5913 14.9371 13.7982 15.5706 12.8953 16.0058C11.9923 16.441 11.0027 16.6666 10.0003 16.666C8.99795 16.6666 8.00837 16.441 7.10538 16.0058C6.2024 15.5706 5.40933 14.9371 4.78533 14.1527C6.13616 13.1835 7.97949 12.4993 10.0003 12.4993C12.0212 12.4993 13.8645 13.1835 15.2153 14.1527Z" fill="#333333"/>
</svg>
