<svg width="20" height="20" viewBox="0 0 20 20" fill="none" xmlns="http://www.w3.org/2000/svg">
<path d="M4.99935 5.83317C4.99935 4.7281 5.43834 3.66829 6.21974 2.88689C7.00114 2.10549 8.06095 1.6665 9.16602 1.6665C10.2711 1.6665 11.3309 2.10549 12.1123 2.88689C12.8937 3.66829 13.3327 4.7281 13.3327 5.83317C13.3327 6.93824 12.8937 7.99805 12.1123 8.77945C11.3309 9.56085 10.2711 9.99984 9.16602 9.99984C8.06095 9.99984 7.00114 9.56085 6.21974 8.77945C5.43834 7.99805 4.99935 6.93824 4.99935 5.83317ZM4.01768 12.2265C5.35352 11.4115 7.17018 10.8332 9.16602 10.8332C9.53879 10.8332 9.90435 10.8526 10.2627 10.8915C10.4058 10.9069 10.5425 10.959 10.6595 11.0429C10.7765 11.1269 10.8698 11.2396 10.9302 11.3703C10.9906 11.501 11.0161 11.6451 11.0043 11.7886C10.9925 11.932 10.9437 12.07 10.8627 12.189C10.2983 13.0176 9.99734 13.9973 9.99935 14.9998C9.99935 15.7665 10.1718 16.4915 10.4785 17.139C10.5383 17.2651 10.5654 17.4043 10.5574 17.5436C10.5493 17.683 10.5065 17.8181 10.4326 17.9365C10.3588 18.055 10.2564 18.153 10.1348 18.2216C10.0133 18.2901 9.87641 18.3271 9.73685 18.329L9.16602 18.3332C7.30852 18.3332 5.55352 18.2165 4.23852 17.8682C3.58435 17.6948 2.96852 17.4465 2.50185 17.0715C2.00768 16.6748 1.66602 16.1207 1.66602 15.4165C1.66602 14.7607 1.96435 14.1473 2.36935 13.634C2.78102 13.1132 3.35018 12.634 4.01768 12.2257V12.2265ZM14.9993 11.6665C15.2204 11.6665 15.4323 11.7543 15.5886 11.9106C15.7449 12.0669 15.8327 12.2788 15.8327 12.4998V14.1665H17.4993C17.7204 14.1665 17.9323 14.2543 18.0886 14.4106C18.2449 14.5669 18.3327 14.7788 18.3327 14.9998C18.3327 15.2209 18.2449 15.4328 18.0886 15.5891C17.9323 15.7454 17.7204 15.8332 17.4993 15.8332H15.8327V17.4998C15.8327 17.7209 15.7449 17.9328 15.5886 18.0891C15.4323 18.2454 15.2204 18.3332 14.9993 18.3332C14.7783 18.3332 14.5664 18.2454 14.4101 18.0891C14.2538 17.9328 14.166 17.7209 14.166 17.4998V15.8332H12.4993C12.2783 15.8332 12.0664 15.7454 11.9101 15.5891C11.7538 15.4328 11.666 15.2209 11.666 14.9998C11.666 14.7788 11.7538 14.5669 11.9101 14.4106C12.0664 14.2543 12.2783 14.1665 12.4993 14.1665H14.166V12.4998C14.166 12.2788 14.2538 12.0669 14.4101 11.9106C14.5664 11.7543 14.7783 11.6665 14.9993 11.6665Z" fill="#163300"/>
</svg>
