<svg width="20" height="20" viewBox="0 0 20 20" fill="none" xmlns="http://www.w3.org/2000/svg">
<path fill-rule="evenodd" clip-rule="evenodd" d="M16.667 2.5C17.0875 2.49987 17.4925 2.65867 17.8008 2.94458C18.1091 3.23049 18.298 3.62237 18.3295 4.04167L18.3337 4.16667V15.8333C18.3338 16.2538 18.175 16.6588 17.8891 16.9671C17.6032 17.2754 17.2113 17.4643 16.792 17.4958L16.667 17.5H3.33366C2.91318 17.5001 2.50819 17.3413 2.19987 17.0554C1.89155 16.7695 1.7027 16.3776 1.67116 15.9583L1.66699 15.8333V4.16667C1.66686 3.74619 1.82566 3.34119 2.11157 3.03288C2.39748 2.72456 2.78936 2.5357 3.20866 2.50417L3.33366 2.5H16.667ZM16.667 4.16667H3.33366V15.8333H16.667V4.16667ZM8.61699 6.365L9.04866 6.55667L9.33033 6.69L9.65283 6.84833L10.0112 7.03L10.4028 7.23833L10.8253 7.47167L11.047 7.59833L11.4787 7.8525L11.8737 8.09583L12.232 8.32333L12.5487 8.53417L12.9487 8.80917L13.252 9.02833L13.3312 9.08667C13.4598 9.18236 13.5642 9.3068 13.6362 9.45004C13.7081 9.59328 13.7456 9.75136 13.7456 9.91167C13.7456 10.072 13.7081 10.2301 13.6362 10.3733C13.5642 10.5165 13.4598 10.641 13.3312 10.7367L13.062 10.9325L12.6953 11.1892L12.3987 11.3883L12.0612 11.6075L11.6837 11.8433L11.2678 12.0933L10.8228 12.3508L10.3987 12.5858L10.0062 12.7942L9.64783 12.9775L9.32616 13.1342L8.80783 13.3742L8.61616 13.4575C8.46901 13.5209 8.30908 13.5491 8.14913 13.5397C7.98918 13.5303 7.83362 13.4837 7.69487 13.4036C7.55613 13.3234 7.43803 13.212 7.34999 13.0781C7.26196 12.9442 7.20643 12.7916 7.18783 12.6325L7.13949 12.1617L7.11283 11.85L7.07783 11.2967L7.05866 10.8733L7.04616 10.4108L7.04283 10.1658L7.04116 9.91167C7.04116 9.73944 7.04283 9.57278 7.04616 9.41167L7.05866 8.94917L7.07783 8.52667L7.10033 8.14583L7.12533 7.81167L7.18783 7.19167C7.20632 7.03235 7.26179 6.87956 7.34982 6.74548C7.43785 6.61141 7.55599 6.49977 7.69483 6.41946C7.83366 6.33915 7.98935 6.29241 8.14946 6.28295C8.30957 6.2735 8.46967 6.30159 8.61699 6.365ZM9.12616 8.44917L8.76283 8.2675L8.73866 8.67333L8.72033 9.1325L8.70949 9.64083L8.70783 9.91167L8.70949 10.1825L8.72033 10.69L8.72866 10.9258L8.75033 11.3592L8.76283 11.555L9.12449 11.3733L9.53033 11.16L9.97616 10.915L10.2128 10.78L10.672 10.5083L11.0837 10.2533L11.447 10.02L11.6103 9.91167L11.2712 9.68667L10.8828 9.44167C10.6619 9.30486 10.4388 9.17151 10.2137 9.04167L9.97783 8.9075L9.53283 8.6625L9.12616 8.44917Z" fill="#A3A3A3"/>
</svg>
