<svg width="20" height="20" viewBox="0 0 20 20" fill="none" xmlns="http://www.w3.org/2000/svg">
<path fill-rule="evenodd" clip-rule="evenodd" d="M3.33268 2.5C2.89065 2.5 2.46673 2.67559 2.15417 2.98816C1.84161 3.30072 1.66602 3.72464 1.66602 4.16667V15.8333C1.66602 16.2754 1.84161 16.6993 2.15417 17.0118C2.46673 17.3244 2.89065 17.5 3.33268 17.5H16.666C17.108 17.5 17.532 17.3244 17.8445 17.0118C18.1571 16.6993 18.3327 16.2754 18.3327 15.8333V4.16667C18.3327 3.72464 18.1571 3.30072 17.8445 2.98816C17.532 2.67559 17.108 2.5 16.666 2.5H3.33268ZM7.18685 7.19167C7.20534 7.03235 7.26081 6.87956 7.34884 6.74548C7.43687 6.61141 7.55501 6.49977 7.69385 6.41946C7.83269 6.33915 7.98837 6.29241 8.14848 6.28295C8.30859 6.2735 8.46869 6.30159 8.61602 6.365C9.03602 6.545 9.92268 6.95 11.046 7.59833C11.8355 8.04953 12.5979 8.54649 13.3293 9.08667C13.458 9.18236 13.5624 9.3068 13.6344 9.45004C13.7063 9.59328 13.7438 9.75136 13.7438 9.91167C13.7438 10.072 13.7063 10.2301 13.6344 10.3733C13.5624 10.5165 13.458 10.641 13.3293 10.7367C12.5978 11.2763 11.8354 11.7727 11.046 12.2233C10.2608 12.682 9.44939 13.0944 8.61602 13.4583C8.46871 13.5219 8.30856 13.5502 8.14839 13.5408C7.98821 13.5314 7.83246 13.4847 7.69357 13.4044C7.55468 13.324 7.43652 13.2123 7.34853 13.0781C7.26055 12.944 7.20517 12.7911 7.18685 12.6317C7.08686 11.7285 7.03789 10.8204 7.04018 9.91167C7.04018 8.61917 7.13352 7.64583 7.18685 7.19167Z" fill="#163300"/>
</svg>
