<svg width="30" height="30" viewBox="0 0 30 30" fill="none" xmlns="http://www.w3.org/2000/svg">
<path fill-rule="evenodd" clip-rule="evenodd" d="M16.0269 3.69744C18.8129 3.83436 21.409 4.98323 23.3918 6.96738C25.5068 9.0837 26.6709 11.8969 26.6698 14.8885C26.6673 21.0621 21.6414 26.0853 15.4675 26.0853C13.1457 26.0853 11.3008 25.3719 10.1095 24.7224L4.1709 26.2794L5.7602 20.4773C4.77987 18.7793 4.26402 16.8531 4.26483 14.8797C4.26731 8.70622 9.2927 3.68359 15.4673 3.68359L16.0269 3.69744ZM10.3846 22.6954L10.7246 22.8971C12.1542 23.745 13.7929 24.1937 15.4637 24.1943H15.4674C20.5994 24.1943 24.7763 20.0194 24.7783 14.8879C24.7793 12.4013 23.8117 10.0631 22.0538 8.30402C20.2958 6.54487 17.9581 5.57552 15.4711 5.57472C10.3352 5.57472 6.15829 9.7492 6.15624 14.8803C6.15554 16.6388 6.64778 18.3514 7.57983 19.833L7.80121 20.1852L6.8606 23.6194L10.3846 22.6954ZM21.1111 17.5511C21.0412 17.4343 20.8546 17.3644 20.5747 17.2243C20.2948 17.0843 18.9186 16.4075 18.662 16.314C18.4055 16.2208 18.2188 16.1741 18.0323 16.4541C17.8457 16.7342 17.3093 17.3644 17.1459 17.5511C16.9827 17.7378 16.8194 17.7612 16.5395 17.6211C16.2596 17.4811 15.3577 17.1856 14.2886 16.2325C13.4564 15.4906 12.8947 14.5745 12.7314 14.2944C12.5681 14.0144 12.714 13.8629 12.8541 13.7235C12.98 13.5981 13.134 13.3967 13.274 13.2333C13.414 13.07 13.4606 12.9532 13.5539 12.7666C13.6472 12.5798 13.6005 12.4165 13.5306 12.2765C13.4606 12.1364 12.9008 10.7593 12.6676 10.1991C12.4403 9.65359 12.2095 9.72744 12.0377 9.71882C11.8747 9.71074 11.6879 9.70896 11.5013 9.70896C11.3147 9.70896 11.0114 9.77893 10.7549 10.0591C10.4983 10.3391 9.77519 11.016 9.77519 12.393C9.77519 13.7702 10.7782 15.1004 10.9182 15.2871C11.0581 15.4739 12.8919 18.2997 15.6998 19.5116C16.3676 19.7999 16.889 19.972 17.2955 20.1009C17.9661 20.3139 18.5762 20.2839 19.0586 20.2118C19.5963 20.1315 20.7146 19.535 20.9479 18.8816C21.1811 18.2279 21.1811 17.6678 21.1111 17.5511Z" fill="#163300"/>
</svg>
